<svg xmlns="http://www.w3.org/2000/svg" viewBox="194 207 648 539" role="img" aria-label="arqix mark">
  <!-- Traced from assets/arqix-mono-dark.png (potrace); fill follows the
       surrounding text colour, so one file serves light and dark themes. -->
  <path fill="currentColor" fill-rule="evenodd" d="M317 722.4C317 719.8 344.7 677.2 350.1 671.5C354.3 667 353.6 666.6 348.9 670.8C342.8 676.3 333.7 683 332.3 683C330.7 683 336.5 674.9 344.3 666.2C347.6 662.5 360.6 649.1 373 636.5C385.5 623.9 400.2 608.5 405.6 602.5C411 596.5 417.3 589.5 419.6 587C421.9 584.5 425.7 580 428 577C430.4 574 433.7 570 435.3 568.2C438.8 564.5 438 564.2 431.3 566.9C426.2 568.9 411.1 572.5 410.5 571.8C410.3 571.6 413.6 569.1 417.8 566.3C422 563.5 432.4 555.6 440.8 548.8L456.2 536.5L456.4 529.9C456.6 524.3 457.1 522.6 459.4 519.5C462.4 515.6 468.8 512.1 473 512C475.1 511.9 477.1 509.4 485.8 496.2L496.1 480.5L494.6 477.2C492.6 473 492.5 462.8 494.5 459C495.3 457.5 497.6 454.8 499.6 453.2C503.8 449.7 503.7 453.3 500.1 424C498.9 414.9 498 406.8 498 406C498 405.1 496.5 403.8 494.5 403.2C492.7 402.5 489.9 400.5 488.5 398.7C487.1 396.9 485.5 394.9 485 394.3C483.8 392.8 464.6 393.5 456.7 395.2L451.9 396.2L456.2 398.5C458.6 399.7 461.5 402.2 462.7 403.9C465 407.3 466.6 416.4 465.5 419.9C464.4 423.6 465.9 428 468.3 428C470.9 428 478 431.2 482.2 434.1L485.2 436.2L480.8 438.8C466.6 447 444.1 458.3 425.5 466.6C420.8 468.6 402.8 475.7 400.1 476.5C397.3 477.4 397.2 477.5 412.2 459.2C429.2 438.5 439.8 425.2 444.3 419.1C448.6 413.3 449 413 449 415.6C448.9 418.5 442.9 437.1 439.6 444.3L437.9 448.1L441.8 446.1C452.1 440.9 454 436.8 454 420C454 410 453.9 409.8 451 407C449.4 405.5 446 403.7 443.6 403.1C437.4 401.6 422.7 401.7 408.5 403.5C401.9 404.4 393.1 405.5 389 406C384.9 406.5 379.5 407.2 377 407.5L372.5 408.1L410.5 370.7C446.5 335.1 448.4 333.1 446.9 331.3C441.9 325.7 409.1 275.3 405.3 267.4C400.9 258.4 399.5 252.1 401.6 251.3C403.4 250.7 410.7 256.7 416.5 263.7C419.6 267.5 425.6 275 429.8 280.5C434 286 444.6 299.5 453.3 310.5C462.1 321.5 469.7 331.1 470.3 331.7C470.9 332.6 470.3 334.1 468 336.7C460.4 345.6 427.1 379.7 422.5 383.3L417.6 387.2L422 386.6C430 385.5 446.1 384.1 462 383C485 381.5 485.3 381.4 487.3 378C489.9 373.7 498.8 369.6 503.8 370.5C511.7 371.8 517 377.6 517 384.8C517 387.4 517.5 388 520.8 389C522.8 389.7 528 391.6 532.4 393.3C540.1 396.3 540.3 396.3 543.3 394.7C548 391.9 554.3 391.5 559.5 393.4C563.9 395.1 564 395.1 572.3 392.1C581.5 388.7 593.6 385 601.8 383C606.4 381.9 607.3 381.3 609 378C612.2 371.7 619.5 367 626.3 367C632.1 367 640.2 373 643 379.6L644.8 383.7L653.1 384.3C657.7 384.7 673.9 385.9 689 387C704.1 388.2 722.1 389.5 729 390C735.9 390.5 743.4 391 745.8 391C748.1 391 750 391.3 750 391.8C750 392.9 741.5 395.7 734 397C725.8 398.5 683.8 398.3 660 396.7L642.5 395.5L639 399.1C635.3 403 628.6 405.5 624.3 404.7C622.3 404.3 621.9 404.8 620.9 408.4C616.8 423.7 599.6 467.9 596.9 470.2C595.7 471.2 593.3 472 591.5 472C587.1 472 585.8 470.4 570.9 446.5L558.8 427L554 427C548.2 427 547.6 427.7 538.6 443.7C535.5 449.3 532.3 454.5 531.6 455.3C530.5 456.4 530.4 457.3 531.6 460.5C534.3 468.5 534.3 471.1 531.3 476.9C529.8 479.9 526.8 483.8 524.7 485.4C521.2 488.2 520.1 488.5 513.4 488.6L506 488.8L500.9 496.6C498.1 501 494.2 506.9 492.2 509.8C489 514.6 488.8 515.2 490 517.5C491.4 520.1 493 520.8 493 518.9C493 516.5 506.5 502.7 510.5 500.9C521.9 495.9 555.4 491 582.6 490.3C606.2 489.7 609.7 490 613.9 493.5C617.9 496.9 618.3 500.2 615.4 505.7C613.1 509.9 600.8 526.5 587.6 543C584.3 547.1 581.5 550.7 581.3 550.9C581.1 551.1 580.8 551.1 580.6 550.9C580.2 550.5 582.5 537.1 583.6 533.8C584.5 530.8 582.3 531.8 581 534.9C580.4 536.5 574.5 544.9 567.9 553.6C559.5 564.8 556.4 569.7 557.1 570.6C558.4 572.2 578.8 585.7 587.8 590.9C599.5 597.7 610.8 602.5 625.6 607C633.3 609.2 641.4 612.3 643.8 613.6C649.5 616.9 653.6 622.9 655 629.7C656.3 635.8 655.8 639 653.2 641.6C651.6 643.3 651.5 643.2 651 639.4C650.3 634.2 645.9 626.8 641.6 623.5C637.9 620.7 622.1 613.5 621.3 614.3C621.1 614.6 623.6 617.6 626.9 621C634 628.3 637.2 634.4 637.7 641.4C638.1 646.7 635.5 653.8 633.5 653.2C633 653 632 650.7 631.4 648C630 641.8 627.8 638.3 619.3 629.7C615.5 625.7 610.9 620.6 609 618.2C607.2 615.9 605.1 614 604.5 614C601.5 614 599.7 626.6 602 632.4C602.8 634.6 602.7 634.9 601.1 634.7C595.5 633.9 592.7 627.5 592.6 615.7L592.5 607L580.5 599.7C573.9 595.7 564.5 589.8 559.7 586.6L550.9 580.7L547.4 582.3C543.5 584.2 537.2 584.5 533.8 582.9C530.1 581.3 526.9 575.7 526.7 570.8C526.4 562.5 532.5 557 542.2 557L547.8 557L561.7 539.3C585.7 508.6 588 505.5 588 504.2C588 503.5 586.5 503 584 503C576.9 503 552.4 506 534.8 509C515.8 512.3 516.1 512.1 504 524.5C500.4 528.2 496.5 531.6 495.3 532.1C494.1 532.5 492.3 534.6 491.5 536.7C487 547.4 477 551.2 465.8 546.5C463.9 545.7 461.7 548.9 454.8 561.8C452.6 566.1 449.1 572.2 447.2 575.4L443.6 581.4L444.9 596.4C447.5 626.2 447.7 628.5 446.7 630.5C445.3 633.3 442.2 636.8 437 641.7L432.5 645.8L432.7 616.6L433 587.5L431 591.2C427.6 597.6 424.5 616 421.6 647.1C420.8 655.7 419.5 664.3 418.7 666.1C417.4 669.3 402 685 400.2 685C399.7 685 400.6 678.8 402.1 671.2C406.1 651.5 413.1 610.7 412.6 610.2C412.3 610 410.2 612.3 407.9 615.3C403.2 621.3 402.7 623 397 647.2C390.5 674.9 386.9 688.2 384.3 693.3C381.5 698.9 376.8 703.8 367.5 710.9C358.8 717.4 357.6 717.6 360.5 711.9C365.6 702.1 387.9 636.6 386.6 635.3C386.1 634.7 380.3 643.6 374.5 654C361.1 678.2 352.4 691.2 343.2 701.2C338.3 706.4 318.8 723 317.4 723C317.2 723 317 722.7 317 722.4ZM506 668.1C506 659.9 503.5 652.1 495.5 635.4C490.2 624.4 490.1 624.3 486.2 623.7C477.9 622.3 473.3 614.9 476.4 607.6C477.9 603.9 477.9 603.8 473.8 595.2C467.7 582.1 463 569.5 463 565.8C463 562 465.7 556.1 468.1 554.6C469.3 553.9 470.2 554.1 471.3 555.2C472.9 556.8 486.3 589.7 487.5 594.9C488 597.3 489.1 598.4 492.4 599.9C496.8 601.8 499.3 604.7 502.2 611.2C503.5 614 505.5 615.7 510.5 618.5C521.6 624.8 527.3 630 530.5 637.1C533.7 644.3 534 648.9 531.5 654.5L529.7 658.5L529 654.5C527.6 645.5 520.9 636.9 508.6 627.8C499.8 621.4 497.9 620.6 500.8 624.8C501.9 626.3 505.6 633 509.1 639.8C514.7 650.9 515.4 652.7 515.4 658.4C515.5 663.6 515 665.3 512.8 668.8C511.3 671.1 509.1 673.4 508 674C506.1 675 506 674.8 506 668.1ZM311 664.9C318.1 659 383.9 615.5 384.6 616.2C385.6 617.3 373.2 630.5 363.4 638.7C352 648.3 349.5 650.2 339.2 656.4C330.6 661.6 315.9 667 310.5 667C308.7 666.9 308.7 666.8 311 664.9ZM343 624.6C343 623 414.7 579 417.2 579C418.7 579 412 587.7 406.5 592.8C400.9 598.1 390.8 605.5 384 609.3C377.7 612.8 361.5 619.5 351.9 622.5C343.4 625.2 343 625.2 343 624.6ZM477.4 539C478.2 539 479.9 537.8 481.4 536.4C484.9 532.9 484.9 528.2 481.4 524.1C479.2 521.5 478.1 521 474.4 521C471 521 469.3 521.6 467.5 523.5C464.5 526.4 464.2 532.4 466.8 535.7C468.7 538.2 472.8 540.1 474.8 539.4C475.6 539.2 476.7 539 477.4 539ZM759.6 494.6C738.8 484.1 707.4 461.9 678 437.1C662.8 424.2 647.6 410 648.3 409.3C649.1 408.6 667 416.1 673.4 419.8C698 434.1 737.2 463.9 760.3 485.9C767.5 492.8 774.5 501 773.2 501C772.7 501 766.6 498.1 759.6 494.6ZM812 487.5C804 484.1 792.5 477.6 775.5 466.8C731.5 439 676.8 407.3 667.8 404.4C664.8 403.5 665.8 402 669.2 402C675 402.1 686.1 404 693.4 406.2C709.4 411 741.1 426.6 757.6 437.7C768.5 445.1 771.3 447.1 782.2 455.3C804.8 472.2 819 485.1 819 488.9C819 490.4 818.4 490.3 812 487.5ZM520.2 474.9C522.4 472.6 523 471 523 467.6C523 463.9 522.5 462.8 519.9 460.6C509.9 452.2 496.4 465.5 505.4 474.9C510.1 479.8 515.7 479.9 520.2 474.9ZM597.5 431C601.2 420.8 605.5 409.3 607.1 405.3C609.6 399.4 609.9 397.7 609 396C608.4 394.8 607.3 394.1 606.7 394.4C602.9 396 577.6 404 574.6 404.5C571.1 405.2 571 405.4 571 409.7C571 412.1 570.5 415 570 416.1C569.1 417.7 570.6 420.5 579.6 434C585.5 442.8 590.5 449.9 590.6 449.7C590.8 449.5 593.9 441.1 597.5 431ZM523.5 443.3C525.1 440.1 528.9 433.7 531.8 429.1C537.2 420.5 537.7 419.1 536 416.1C535.5 415.1 534.9 412.5 534.7 410.4L534.3 406.5L524.4 402.9C519 400.9 514 399.5 513.5 399.7C510.4 400.8 510.3 403.6 513.1 425.4C515.8 446.5 516.5 448.9 519.5 449C520 449 521.9 446.4 523.5 443.3ZM798.5 440.3C776 428.9 756.5 420.5 737.1 414C727.5 410.7 719.5 407.8 719.3 407.6C718.2 406.5 731.6 405.8 742.5 406.3C758.7 407.2 769.7 408.8 774 411C776 412 781.2 415.6 785.5 418.9C798.8 429 817.9 448.3 814.3 447.9C813.9 447.9 806.8 444.4 798.5 440.3ZM558.5 415.5C561.5 412.6 561.8 407.2 559.2 404.1C558.3 402.9 555.8 401.7 553.7 401.3C550.4 400.8 549.5 401.1 546.9 403.5C544.8 405.6 544 407.3 544 409.7C544 417.1 553.3 420.8 558.5 415.5ZM632.5 391.8C636 387.7 635.8 383.6 632 379.8C629.3 377.1 628.4 376.8 624.8 377.3C619.8 378 617.1 380.5 616.4 385.1C615.9 387.9 616.3 389.2 618.4 391.7C622.6 396.7 628.4 396.7 632.5 391.8ZM372.5 355.6C337.1 343.7 291.1 327.2 264.2 316.8C260.3 315.3 260.1 314.3 263.5 313.4C272.9 311 313.4 320.1 366.5 336.5C388.8 343.4 406.5 349.3 407.8 350.3C408.7 351 407.6 352.7 402.9 357.1C399.4 360.4 396.2 363 395.6 363C395 363 384.6 359.6 372.5 355.6ZM411.5 339C369.7 324.2 320.6 307.8 260 288.4C238 281.3 237.6 281.2 225.6 275.7C221.2 273.7 218.3 271.9 219.1 271.6C223.5 270.2 226.8 270.2 238.1 271.5C275.8 275.7 347.7 298.1 411.5 325.5C417.6 328.1 424 330.9 425.9 331.7L429.3 333.2L424.7 337.6C422.1 340 419.9 342 419.8 341.9C419.6 341.9 415.9 340.6 411.5 339ZM426.5 322C419.5 318.3 390.2 304.5 381.1 300.5C347.9 286.2 332.7 279.9 299.5 266.5C237.3 241.4 236.6 241.1 238.3 239.4C239.4 238.2 255.1 238.9 264.1 240.4C285.2 244.2 321.9 257.1 363.2 275.4C392.7 288.4 412.5 299.5 418.6 306.4C423.6 311.9 432.5 323.9 431.9 324.3C431.7 324.5 429.2 323.4 426.5 322ZM402.1 281.9C397.3 278 373.7 265.7 358.3 259.1C343.8 252.8 318.9 243.2 299.7 236.4C290 233 291.1 231.9 304.2 231.9C327.3 231.9 362.1 240.2 375 248.7C382.7 253.8 392.5 264 399.4 274.2C402.7 279.1 405.2 283.2 404.9 283.4C404.7 283.6 403.4 283 402.1 281.9Z"/>
</svg>
